<?xml version="1.0" encoding="UTF-8" standalone="no"?>
<svg width="683px" height="169px" viewBox="0 0 683 169" version="1.1" xmlns="http://www.w3.org/2000/svg" xmlns:xlink="http://www.w3.org/1999/xlink" xmlns:sketch="http://www.bohemiancoding.com/sketch/ns">
    <!-- Generator: Sketch 3.3.3 (12081) - http://www.bohemiancoding.com/sketch -->
    <title>cucumber</title>
    <desc>Created with Sketch.</desc>
    <defs></defs>
    <g id="Page-1" stroke="none" stroke-width="1" fill="none" fill-rule="evenodd" sketch:type="MSPage">
        <g id="cucumber" sketch:type="MSLayerGroup">
            <g id="logo" transform="translate(0.000000, 14.000000)" sketch:type="MSShapeGroup">
                <path d="M60.7154179,0.556587169 C27.4675678,0.556587169 0.560561744,27.5261719 0.560561744,60.8513463 C0.560561744,90.1921126 21.5442233,114.571336 49.235483,119.995442 L49.235483,137.255392 C85.2369019,131.815049 117.113982,103.170465 119.49268,65.569066 C120.924457,42.9361735 109.666022,19.8307257 90.6780454,8.61123056 C89.5909056,7.96886843 88.4863733,7.33116859 87.3488643,6.77016921 C86.1897912,6.19853513 84.9995711,5.64140861 83.7900851,5.15924054 C83.4061588,4.99826476 83.0299701,4.85223398 82.6420923,4.69897521 C81.5857278,4.30811235 80.5198178,3.86797092 79.4277101,3.54831186 C73.541436,1.6036875 67.249097,0.556587169 60.7154179,0.556587169 L60.7154179,0.556587169 L60.7154179,0.556587169 Z" id="path3943" fill="#155799"></path>
                <path d="M73.1137462,22.879456 C71.0559687,22.6680211 68.8891299,23.3857479 67.3737787,25.1807827 C66.2717054,26.6536317 65.58291,28.0804543 64.8481935,29.5533033 C62.6440454,34.7082752 63.3787619,40.2314593 66.6849833,44.2817941 C71.827993,43.1771573 76.190368,39.8862602 78.3945162,34.7312884 C79.1292312,33.2584394 79.542509,31.3713514 79.542509,29.8985024 C79.7721085,25.986247 76.5433768,23.2318465 73.1137462,22.879456 L73.1137462,22.879456 L73.1137462,22.879456 Z M46.3654993,23.224655 C43.0112053,23.5446834 39.8219374,26.2163797 39.8219374,29.8985024 C39.8219374,31.3713514 40.2352137,33.2584394 40.9699303,34.7312884 C43.1740784,39.8862602 47.8808504,43.1771573 53.0238616,44.2817941 C55.9627248,40.2314593 56.7203995,34.7082752 54.516253,29.5533033 C53.7815364,28.0804543 53.092741,26.6306185 51.9906677,25.5259816 C50.475315,23.7309469 48.3780769,23.0326382 46.3654993,23.224655 L46.3654993,23.224655 L46.3654993,23.224655 Z M28.3420025,40.9448705 C22.5491195,41.2428647 19.9616509,48.5392485 24.7832234,52.3364375 C26.252655,53.4410744 27.6761669,54.2465387 29.1455985,54.9829633 C34.2886081,57.1922369 40.2352137,56.4327991 44.64351,53.4871009 C43.5414351,48.7003413 39.7989776,44.3048075 34.6559664,42.0955337 C32.8191766,41.3591093 31.3267852,40.9448705 29.4899954,40.9448705 C29.0767191,40.898844 28.7281942,40.924987 28.3420025,40.9448705 L28.3420025,40.9448705 L28.3420025,40.9448705 Z M84.938078,63.2677393 C81.5730208,63.2030076 78.1649166,64.1882699 75.4097335,66.0293314 C76.5118067,70.8160908 80.2542658,75.2116248 85.3972755,77.4208984 C87.2340653,78.157323 88.7264566,78.5715618 90.5632465,78.5715618 C97.1756877,78.9397739 100.41303,70.7470509 95.2700185,67.0649284 C93.8005869,65.9602915 92.377075,65.2698934 90.9076434,64.533469 C88.9790159,63.7049914 86.9571098,63.3065746 84.938078,63.2677393 L84.938078,63.2677393 L84.938078,63.2677393 Z M34.7707654,63.6129383 C32.751732,63.6517847 30.729829,64.0501903 28.8012,64.878668 C26.9644102,65.6150925 25.5408982,66.4205568 24.4388249,67.5251937 C19.663172,71.5755286 22.8775542,79.284973 29.4899954,78.9167607 C31.3267852,78.9167607 33.1865349,78.5025219 34.6559664,77.7660973 C39.7989776,75.5568238 43.449596,71.1612898 44.1843125,66.3745303 C41.4291278,64.533469 38.1358226,63.548214 34.7707654,63.6129383 L34.7707654,63.6129383 L34.7707654,63.6129383 Z M53.3682586,74.8894391 C48.2252489,75.9940758 43.8628738,79.284973 41.6587257,84.4399448 C40.9240107,85.9127938 40.5107328,87.6848154 40.5107328,89.1576645 C40.1433746,95.417273 48.6614866,98.77721 52.3350647,93.9904505 C53.4371395,92.5176014 54.1259349,91.0907789 54.8606499,89.6179299 C57.064798,84.8311703 56.3071217,79.3079862 53.3682586,74.8894391 L53.3682586,74.8894391 L53.3682586,74.8894391 Z M67.0293802,75.234638 C64.0905171,79.284973 63.3328423,84.8081571 65.5369889,89.9631288 C66.2717054,91.4359778 66.9605008,92.8858136 68.0625757,93.9904505 C72.1035121,98.4089977 80.5986627,95.1411138 80.231306,89.6179299 C80.231306,88.1450807 79.8180281,86.2579929 79.0833116,84.7851437 C76.879165,79.630172 72.1723915,76.3392749 67.0293802,75.234638 L67.0293802,75.234638 L67.0293802,75.234638 Z" id="rect4005" fill="#FFFFFF"></path>
            </g>
            <path d="M211.68,30.4 C206.04,22.24 198,16.36 185.64,16.36 C165.36,16.36 153.6,31.6 153.6,46.96 C153.6,62.32 165.36,77.56 185.64,77.56 C196.68,77.56 206.52,71.68 211.68,63.52 L200.76,57.04 C197.4,62.32 192.48,65.8 185.64,65.8 C174.72,65.8 166.8,57.4 166.8,46.96 C166.8,36.52 174.72,28.12 185.64,28.12 C192.72,28.12 197.4,31.72 200.76,36.88 L211.68,30.4 Z M220.86,51.52 C220.86,67.84 233.58,77.56 247.38,77.56 C261.18,77.56 273.9,67.84 273.9,51.52 L273.9,17.92 L261.42,17.92 L261.42,50.44 C261.42,58.96 255.18,65.08 247.38,65.08 C239.58,65.08 233.34,58.96 233.34,50.44 L233.34,17.92 L220.86,17.92 L220.86,51.52 Z M342,30.4 C336.36,22.24 328.32,16.36 315.96,16.36 C295.68,16.36 283.92,31.6 283.92,46.96 C283.92,62.32 295.68,77.56 315.96,77.56 C327,77.56 336.84,71.68 342,63.52 L331.08,57.04 C327.72,62.32 322.8,65.8 315.96,65.8 C305.04,65.8 297.12,57.4 297.12,46.96 C297.12,36.52 305.04,28.12 315.96,28.12 C323.04,28.12 327.72,31.72 331.08,36.88 L342,30.4 Z M351.18,51.52 C351.18,67.84 363.9,77.56 377.7,77.56 C391.5,77.56 404.22,67.84 404.22,51.52 L404.22,17.92 L391.74,17.92 L391.74,50.44 C391.74,58.96 385.5,65.08 377.7,65.08 C369.9,65.08 363.66,58.96 363.66,50.44 L363.66,17.92 L351.18,17.92 L351.18,51.52 Z M418.56,76 L431.04,76 L431.04,39.76 C431.04,32.8 435.48,28.84 440.64,28.84 C446.64,28.84 451.08,32.44 451.08,41.44 L451.08,76 L463.56,76 L463.56,41.44 C463.56,32.44 468,28.84 474,28.84 C479.16,28.84 483.6,32.8 483.6,39.76 L483.6,76 L496.08,76 L496.08,39.64 C496.08,24.88 486.24,16.36 474.84,16.36 C466.08,16.36 459.72,20.56 457.44,26.68 L457.2,26.68 C454.92,20.56 448.56,16.36 439.8,16.36 C428.4,16.36 418.56,24.88 418.56,39.64 L418.56,76 Z M510.42,76 L522.9,76 L522.9,68.92 L523.14,68.92 C526.14,73.72 533.94,77.56 542.1,77.56 C557.22,77.56 572.34,66.4 572.34,46.96 C572.34,27.52 557.22,16.36 542.1,16.36 C533.94,16.36 526.14,20.2 523.14,25 L522.9,25 L522.9,0.64 L510.42,0.64 L510.42,76 Z M559.14,46.96 C559.14,57.76 551.46,65.8 541.02,65.8 C530.58,65.8 522.9,57.76 522.9,46.96 C522.9,36.16 530.58,28.12 541.02,28.12 C551.46,28.12 559.14,36.16 559.14,46.96 L559.14,46.96 Z M627.48,57.52 C623.16,63.28 617.4,66.52 610.68,66.52 C601.92,66.52 593.64,60.16 592.92,51.28 L641.16,51.28 L641.16,49 C641.16,26.32 623.16,16.36 611.04,16.36 C590.76,16.36 579,31.6 579,46.96 C579,62.32 590.76,77.56 611.04,77.56 C621.48,77.44 631.08,72.16 638.04,63.4 L627.48,57.52 Z M592.92,40.96 C594.96,32.32 601.44,27.4 609.36,27.4 C617.28,27.4 623.88,32.08 626.52,40.96 L592.92,40.96 Z M652.14,76 L664.62,76 L664.62,37.6 C664.62,32.32 668.7,28.84 673.26,28.84 C674.46,28.84 676.74,29.56 677.94,30.52 L682.38,18.16 C680.7,17.08 678.3,16.36 675.54,16.36 C670.5,16.36 666.18,19.48 664.14,24.28 L663.9,24.28 L663.9,17.92 L652.14,17.92 L652.14,76 Z" fill="#000000" sketch:type="MSShapeGroup"></path>
            <path d="M418.92,169 L431.4,169 L431.4,132.76 C431.4,125.8 435.84,121.84 441,121.84 C447,121.84 451.44,125.44 451.44,134.44 L451.44,169 L463.92,169 L463.92,134.44 C463.92,125.44 468.36,121.84 474.36,121.84 C479.52,121.84 483.96,125.8 483.96,132.76 L483.96,169 L496.44,169 L496.44,132.64 C496.44,117.88 486.6,109.36 475.2,109.36 C466.44,109.36 460.08,113.56 457.8,119.68 L457.56,119.68 C455.28,113.56 448.92,109.36 440.16,109.36 C428.76,109.36 418.92,117.88 418.92,132.64 L418.92,169 Z M511.02,169 L523.5,169 L523.5,110.92 L511.02,110.92 L511.02,169 Z M510.3,99.04 C510.3,102.88 513.42,106 517.26,106 C521.1,106 524.22,102.88 524.22,99.04 C524.22,95.2 521.1,92.08 517.26,92.08 C513.42,92.08 510.3,95.2 510.3,99.04 L510.3,99.04 Z M538.08,169 L550.56,169 L550.56,136.48 C550.56,127 556.8,121.84 564.84,121.84 C573.12,121.84 578.64,126.16 578.64,136.72 L578.64,169 L591.12,169 L591.12,133.96 C591.12,119.56 580.8,109.36 568.56,109.36 C560.64,109.36 554.28,112.84 550.8,118.24 L550.56,118.24 L550.56,110.92 L538.08,110.92 L538.08,169 Z M607.38,169 L619.86,169 L619.86,144.76 L627.42,144.76 L642.78,169 L657.54,169 L636.9,138.28 L656.58,110.92 L641.46,110.92 L626.22,133 L619.86,133 L619.86,93.64 L607.38,93.64 L607.38,133 L599.22,133 L599.22,144.76 L607.38,144.76 L607.38,169 Z" id="mink" fill="#000000" sketch:type="MSShapeGroup"></path>
        </g>
    </g>
</svg>